<?xml version="1.0" encoding="UTF-8" standalone="no"?>
<!DOCTYPE svg PUBLIC "-//W3C//DTD SVG 1.1//EN" "http://www.w3.org/Graphics/SVG/1.1/DTD/svg11.dtd">
<svg xmlns="http://www.w3.org/2000/svg" version="1.1" viewBox="0.00 0.00 748.00 374.00">
<path stroke="#808080" stroke-width="2.00" fill="none" stroke-linecap="butt" vector-effect="non-scaling-stroke" d="
  M 391.49 95.59
  Q 391.79 98.13 391.79 102.25
  Q 391.81 232.35 391.78 362.18
  A 1.18 1.18 0.0 0 0 392.96 363.36
  L 411.69 363.32
  A 1.01 1.00 90.0 0 0 412.69 362.31
  L 412.69 27.53
  A 0.53 0.53 0.0 0 1 413.22 27.00
  L 498.77 27.02
  A 0.98 0.75 90.0 0 1 499.52 28.00
  L 499.46 362.34
  A 0.88 0.87 -0.0 0 0 500.34 363.21
  L 710.49 363.22
  Q 711.95 363.22 711.96 361.76
  L 711.99 342.94
  A 0.49 0.48 90.0 0 0 711.51 342.45
  L 521.54 342.48
  A 1.32 1.32 0.0 0 1 520.22 341.16
  L 520.41 7.54
  Q 520.41 6.17 519.04 6.17
  L 283.92 6.18
  A 0.91 0.90 0.0 0 0 283.01 7.08
  L 283.01 25.76
  A 1.25 1.25 0.0 0 0 284.26 27.01
  L 390.21 27.00
  A 0.56 0.55 8.8 0 1 390.74 27.72
  L 299.87 311.85
  A 0.41 0.41 0.0 0 1 299.08 311.80
  Q 274.13 177.85 248.95 43.76
  Q 246.15 28.86 244.70 13.90
  A 1.23 1.22 87.6 0 0 243.51 12.79
  L 227.53 12.43
  A 1.84 1.84 0.0 0 0 225.72 13.78
  L 143.38 312.19
  Q 142.57 315.12 141.70 312.20
  Q 100.65 174.51 60.01 37.99
  C 57.75 30.41 54.84 21.94 53.24 13.40
  Q 53.17 13.04 52.80 13.03
  L 30.93 12.91
  A 0.86 0.86 0.0 0 0 30.13 14.11
  C 32.00 18.50 33.64 22.66 35.05 27.40
  Q 79.99 178.33 125.00 329.24
  Q 127.50 337.60 133.45 361.50
  A 0.87 0.87 0.0 0 0 134.28 362.16
  L 151.97 362.29
  Q 152.63 362.29 152.76 361.65
  C 154.99 351.14 157.19 340.76 160.09 330.23
  Q 191.24 217.40 222.59 104.63
  Q 227.34 87.56 231.61 70.07
  A 0.36 0.36 0.0 0 1 232.30 70.06
  C 234.45 77.99 235.83 87.00 237.15 94.10
  Q 257.27 201.89 277.47 309.67
  C 280.64 326.59 283.26 343.33 285.81 360.04
  A 2.20 2.19 -8.2 0 0 288.29 361.89
  Q 297.85 360.53 307.46 361.21
  A 0.58 0.57 10.1 0 0 308.05 360.80
  Q 310.37 352.59 312.27 344.28
  Q 314.46 334.69 316.61 327.96
  Q 351.71 218.33 386.77 108.69
  C 387.77 105.57 389.05 99.76 390.93 95.50
  Q 391.36 94.52 391.49 95.59"
/>
<path fill="#ffffff" d="
  M 0.00 0.00
  L 748.00 0.00
  L 748.00 374.00
  L 0.00 374.00
  L 0.00 0.00
  Z
  M 391.49 95.59
  Q 391.79 98.13 391.79 102.25
  Q 391.81 232.35 391.78 362.18
  A 1.18 1.18 0.0 0 0 392.96 363.36
  L 411.69 363.32
  A 1.01 1.00 90.0 0 0 412.69 362.31
  L 412.69 27.53
  A 0.53 0.53 0.0 0 1 413.22 27.00
  L 498.77 27.02
  A 0.98 0.75 90.0 0 1 499.52 28.00
  L 499.46 362.34
  A 0.88 0.87 -0.0 0 0 500.34 363.21
  L 710.49 363.22
  Q 711.95 363.22 711.96 361.76
  L 711.99 342.94
  A 0.49 0.48 90.0 0 0 711.51 342.45
  L 521.54 342.48
  A 1.32 1.32 0.0 0 1 520.22 341.16
  L 520.41 7.54
  Q 520.41 6.17 519.04 6.17
  L 283.92 6.18
  A 0.91 0.90 0.0 0 0 283.01 7.08
  L 283.01 25.76
  A 1.25 1.25 0.0 0 0 284.26 27.01
  L 390.21 27.00
  A 0.56 0.55 8.8 0 1 390.74 27.72
  L 299.87 311.85
  A 0.41 0.41 0.0 0 1 299.08 311.80
  Q 274.13 177.85 248.95 43.76
  Q 246.15 28.86 244.70 13.90
  A 1.23 1.22 87.6 0 0 243.51 12.79
  L 227.53 12.43
  A 1.84 1.84 0.0 0 0 225.72 13.78
  L 143.38 312.19
  Q 142.57 315.12 141.70 312.20
  Q 100.65 174.51 60.01 37.99
  C 57.75 30.41 54.84 21.94 53.24 13.40
  Q 53.17 13.04 52.80 13.03
  L 30.93 12.91
  A 0.86 0.86 0.0 0 0 30.13 14.11
  C 32.00 18.50 33.64 22.66 35.05 27.40
  Q 79.99 178.33 125.00 329.24
  Q 127.50 337.60 133.45 361.50
  A 0.87 0.87 0.0 0 0 134.28 362.16
  L 151.97 362.29
  Q 152.63 362.29 152.76 361.65
  C 154.99 351.14 157.19 340.76 160.09 330.23
  Q 191.24 217.40 222.59 104.63
  Q 227.34 87.56 231.61 70.07
  A 0.36 0.36 0.0 0 1 232.30 70.06
  C 234.45 77.99 235.83 87.00 237.15 94.10
  Q 257.27 201.89 277.47 309.67
  C 280.64 326.59 283.26 343.33 285.81 360.04
  A 2.20 2.19 -8.2 0 0 288.29 361.89
  Q 297.85 360.53 307.46 361.21
  A 0.58 0.57 10.1 0 0 308.05 360.80
  Q 310.37 352.59 312.27 344.28
  Q 314.46 334.69 316.61 327.96
  Q 351.71 218.33 386.77 108.69
  C 387.77 105.57 389.05 99.76 390.93 95.50
  Q 391.36 94.52 391.49 95.59
  Z"
/>
<path fill="#000000" d="
  M 390.93 95.50
  C 389.05 99.76 387.77 105.57 386.77 108.69
  Q 351.71 218.33 316.61 327.96
  Q 314.46 334.69 312.27 344.28
  Q 310.37 352.59 308.05 360.80
  A 0.58 0.57 10.1 0 1 307.46 361.21
  Q 297.85 360.53 288.29 361.89
  A 2.20 2.19 -8.2 0 1 285.81 360.04
  C 283.26 343.33 280.64 326.59 277.47 309.67
  Q 257.27 201.89 237.15 94.10
  C 235.83 87.00 234.45 77.99 232.30 70.06
  A 0.36 0.36 0.0 0 0 231.61 70.07
  Q 227.34 87.56 222.59 104.63
  Q 191.24 217.40 160.09 330.23
  C 157.19 340.76 154.99 351.14 152.76 361.65
  Q 152.63 362.29 151.97 362.29
  L 134.28 362.16
  A 0.87 0.87 0.0 0 1 133.45 361.50
  Q 127.50 337.60 125.00 329.24
  Q 79.99 178.33 35.05 27.40
  C 33.64 22.66 32.00 18.50 30.13 14.11
  A 0.86 0.86 0.0 0 1 30.93 12.91
  L 52.80 13.03
  Q 53.17 13.04 53.24 13.40
  C 54.84 21.94 57.75 30.41 60.01 37.99
  Q 100.65 174.51 141.70 312.20
  Q 142.57 315.12 143.38 312.19
  L 225.72 13.78
  A 1.84 1.84 0.0 0 1 227.53 12.43
  L 243.51 12.79
  A 1.23 1.22 87.6 0 1 244.70 13.90
  Q 246.15 28.86 248.95 43.76
  Q 274.13 177.85 299.08 311.80
  A 0.41 0.41 0.0 0 0 299.87 311.85
  L 390.74 27.72
  A 0.56 0.55 8.8 0 0 390.21 27.00
  L 284.26 27.01
  A 1.25 1.25 0.0 0 1 283.01 25.76
  L 283.01 7.08
  A 0.91 0.90 0.0 0 1 283.92 6.18
  L 519.04 6.17
  Q 520.41 6.17 520.41 7.54
  L 520.22 341.16
  A 1.32 1.32 0.0 0 0 521.54 342.48
  L 711.51 342.45
  A 0.49 0.48 90.0 0 1 711.99 342.94
  L 711.96 361.76
  Q 711.95 363.22 710.49 363.22
  L 500.34 363.21
  A 0.88 0.87 0.0 0 1 499.46 362.34
  L 499.52 28.00
  A 0.98 0.75 90.0 0 0 498.77 27.02
  L 413.22 27.00
  A 0.53 0.53 0.0 0 0 412.69 27.53
  L 412.69 362.31
  A 1.01 1.00 -90.0 0 1 411.69 363.32
  L 392.96 363.36
  A 1.18 1.18 0.0 0 1 391.78 362.18
  Q 391.81 232.35 391.79 102.25
  Q 391.79 98.13 391.49 95.59
  Q 391.36 94.52 390.93 95.50
  Z"
/>
</svg>
